# xmcd
#
# Track frame offsets:
#	150
#	18220
#	33987
#	48208
#	60126
#	72353
#	89379
#	107755
#	122934
#	140965
#	157865
#	172530
#	189781
#	205684
#	217375
#
# Disc length: 3124 seconds
#
# Revision: 1
# Processed by: cddbd v1.5.2PL0 Copyright (c) Steve Scherf et al.
# Submitted via: audiograbber 1.83.01
#
DISCID=c40c320f
DTITLE=Country - CB60163
DYEAR=1998
DGENRE=Karaoke
TTITLE0=Once In A While
TTITLE1=Cowboy Band
TTITLE2=I Let Her Lie
TTITLE3=For Cryin' Out Loud
TTITLE4=Still Got A Crush On You
TTITLE5=Easier Said Than Done
TTITLE6=You and Only You
TTITLE7=What's In It For Me
TTITLE8=Standing On The Edge Of Goodbye
TTITLE9=I Think About It All The Time
TTITLE10=Addicted To A Dollar
TTITLE11=Little Houses
TTITLE12=Faith In Me, Faith In You
TTITLE13=Born In The Dark
TTITLE14=I'll Cry Tomorrow
EXTD=
EXTT0=
EXTT1=
EXTT2=
EXTT3=
EXTT4=
EXTT5=
EXTT6=
EXTT7=
EXTT8=
EXTT9=
EXTT10=
EXTT11=
EXTT12=
EXTT13=
EXTT14=
PLAYORDER=
